_________________________  Visit us at _________________________
  
http://p2pdl.com  ____________________________  http://p2pdl.com

Scooby-Doo Mask Of The Blue Falcon 2012 720p BRRip 720p x264 - PRiSTiNE

Genre: Animation | Adventure | Family
Plot: The gang meet the faded Blue Falcon lead actor at a comic book convention, 
as he swears revenge for being left out of Hollywood. Later, an antagonist from 
the actual Blue Falcon animated series, Mr. Hyde, begins terrorizing the convention, 
trying to stop the release of the new Falcon film.
Director: Jen Soska, Sylvia Soska
Stars: Gregg Berger, Mindy Cohn, Nika Futterman | See full cast and crew
Rated: No.

Info: 
http://www.imdb.com/title/tt2586070/

Trailer:

General
Complete name                  : Scooby-Doo Mask of the Blue Falcon 2012 720p BRRip 720p x264 - PRiSTiNE.mp4
Format                         : MPEG-4
Format profile                 : Base Media
Codec ID                       : isom
File size                      : 436 MiB
Duration                       : 1h 16mn
Overall bit rate mode          : Variable
Overall bit rate               : 797 Kbps

Video
ID                             : 1
Format                         : AVC
Format/Info                    : Advanced Video Codec
Format profile                 : High@L4.1
Bit rate                       : 698 Kbps
Width                          : 1 280 pixels
Height                         : 720 pixels
Display aspect ratio           : 16:9
Frame rate mode                : Constant
Frame rate                     : 23.976 fps
Color space                    : YUV
Bit depth                      : 8 bits
Stream size                    : 382 MiB (88%)
Writing library                : x264 core 129 r2245 bc13772

Audio
Format                         : AAC
Bit rate mode                  : Variable
Bit rate                       : 96.0 Kbps
Channel(s)                     : 2 channels
Channel positions              : Front: L R
Sampling rate                  : 44.1 KHz
Stream size                    : 52.4 MiB (12%)
Language                       : English

Subtitle                       : Yes ( English)


Screens: 
http://www.ultraimg.com/images/UV25.jpg 
http://www.ultraimg.com/images/Yq2iD.jpg 
http://www.ultraimg.com/images/52ls.jpg 
http://www.ultraimg.com/images/odaxB.jpg

Thumbs: 
http://www.ultraimg.com/images/JzMrD.jpg
----------------------------------------------------------------------------------------------------
Encoded using revolutionary 10bit encoding, which enables us to provide you more crispier 
and sharper images at small sizes, just make sure you follow our instructions without a fault.
Recommend to you to use latest version of VLC player. Install K-Lite Codec Pack or shark007 codecs
in case of any kind of problem in playback (For non-VLC Media Player users). Alternatively, install
Core AVC codecs, the fastest decoder that there is coupled with Community Center Codec Pack and play
on Windows Media Player Classic. Check sample to be sure.